<svg xmlns="http://www.w3.org/2000/svg" width="520" height="520" viewBox="0 0 520 520">
  <defs>
    <style>
      .cls-1 {
        fill: #2ebced;
      }

      .cls-2 {
        fill: #fff;
      }

      .cls-3 {
        fill: #e5cf33;
      }

      .cls-4 {
        fill: #4dd6b2;
      }
    </style>
  </defs>
  <title>Artboard 1</title>
  <g id="Layer_2" data-name="Layer 2">
    <rect class="cls-1" width="520" height="520"/>
  </g>
  <g id="Layer_1" data-name="Layer 1">
    <path class="cls-2" d="M161.89,61H49.73A19.39,19.39,0,0,0,30.34,80.41V308.14a19.38,19.38,0,0,0,19.39,19.4H161.89a19.39,19.39,0,0,0,19.4-19.4V80.41A19.4,19.4,0,0,0,161.89,61Zm-12.8,12.15a5,5,0,1,1-5,4.95A5,5,0,0,1,149.09,73.15ZM79.79,75h52V80.7h-52Zm26,240.58A13.67,13.67,0,1,1,119.47,302,13.66,13.66,0,0,1,105.81,315.62ZM166.73,277H44.87V93.75H166.73Z"/>
    <path class="cls-2" d="M479.31,201H349.72A10.69,10.69,0,0,0,339,211.69V456.84a10.69,10.69,0,0,0,10.68,10.69H479.31A10.7,10.7,0,0,0,490,456.84V211.69A10.7,10.7,0,0,0,479.31,201ZM400,223.3h27.25a1.85,1.85,0,0,1,0,3.69H400a1.85,1.85,0,0,1,0-3.69Zm13.63,221.93a6.16,6.16,0,1,1,6.15-6.16A6.16,6.16,0,0,1,413.64,445.23Zm64.12-20H351.28V243.31H477.76Z"/>
    <rect class="cls-3" x="44.87" y="93.75" width="121.86" height="183.22"/>
    <rect class="cls-4" x="351.28" y="243.31" width="126.48" height="181.91"/>
    <path d="M243.32,361.21,237,361l6-10c10.95-15.71,17.84-29.95,29.88-49.2q17.87-28,35.08-65.7a200.68,200.68,0,0,0,11.21-37.27,91.16,91.16,0,0,0,.3-35.5q-8.07-38.84-34.83-54-26.4-15.08-60.59-8.29a147.9,147.9,0,0,0-61.25,28.86l10.3,33A118.83,118.83,0,0,1,196,145.78q6.9-3.94,14.26-7.41A120.29,120.29,0,0,1,226,134.05q20.7-3.7,36,5,15.5,9.66,19.72,29.14a82.08,82.08,0,0,1-.59,34,182.1,182.1,0,0,1-11.64,35q-17.22,35.69-35.36,62.18C223.86,315.29,205,343,205,343v51H363.75V361.21Z"/>
    <path class="cls-1" d="M324,409H190V338.38l2.6-3.82c.19-.28,18.88-27.74,29-43.36l.22-.35c11.58-16.92,23.07-37.11,34.13-60A167.42,167.42,0,0,0,266.5,199a67.57,67.57,0,0,0,.55-27.7c-1.95-8.88-6-15-12.72-19.31a33,33,0,0,0-16.45-4,53,53,0,0,0-9.11.84,105.62,105.62,0,0,0-12.88,3.5c-4.21,2-8.36,4.17-12.35,6.45a104.44,104.44,0,0,0-19.89,14.79l-17.53,17.33-20.73-66.42,8.18-6.39A163.45,163.45,0,0,1,221,86.33l.17,0a121.22,121.22,0,0,1,23.39-2.39,94.62,94.62,0,0,1,47.56,12.37c21.64,12.3,35.81,33.84,42.07,64l0,.13a106.75,106.75,0,0,1-.28,41.29,217.26,217.26,0,0,1-12,40.05l-.12.3-.13.29c-11.7,25.59-23.83,48.3-36.05,67.47-4.81,7.7-8.78,14.58-12.62,21.23-3,5.15-5.85,10.15-8.93,15.17h60V307.63L424.54,376.5,324,445.37Z"/>
    <path class="cls-2" d="M398,376.5l-59-40.41v25.12H243.32L237,361l6-10c10.95-15.71,17.84-29.95,29.88-49.2q17.87-28,35.08-65.7a200.68,200.68,0,0,0,11.21-37.27,91.16,91.16,0,0,0,.3-35.5q-8.07-38.84-34.83-54-26.4-15.08-60.59-8.29a147.9,147.9,0,0,0-61.25,28.86l10.3,33A118.83,118.83,0,0,1,196,145.78q6.9-3.94,14.26-7.41A120.29,120.29,0,0,1,226,134.05q20.7-3.7,36,5,15.5,9.66,19.72,29.14a82.08,82.08,0,0,1-.59,34,182.1,182.1,0,0,1-11.64,35q-17.22,35.69-35.36,62.18C223.86,315.29,205,343,205,343v51H339v22.91Z"/>
  </g>
</svg>
