<svg xmlns="http://www.w3.org/2000/svg" width="520" height="520" viewBox="0 0 520 520">
  <defs>
    <style>
      .cls-1 {
        fill: #2ebced;
      }

      .cls-2 {
        fill: #fff;
      }

      .cls-3 {
        fill: #e5cf33;
      }

      .cls-4 {
        fill: #4dd6b2;
      }
    </style>
  </defs>
  <title>p_icon_0</title>
  <g id="Layer_2" data-name="Layer 2">
    <rect class="cls-1" width="520" height="520"/>
  </g>
  <g id="Layer_1" data-name="Layer 1">
    <path class="cls-2" d="M184.87,108.53H98.94a14.85,14.85,0,0,0-14.86,14.86V297.88a14.86,14.86,0,0,0,14.86,14.87h85.93a14.86,14.86,0,0,0,14.86-14.87V123.39A14.86,14.86,0,0,0,184.87,108.53Zm-9.8,9.3a3.81,3.81,0,1,1-3.8,3.8A3.8,3.8,0,0,1,175.07,117.83ZM122,119.28h39.84v4.34H122ZM141.9,303.62a10.48,10.48,0,1,1,10.47-10.48A10.48,10.48,0,0,1,141.9,303.62ZM188.58,274H95.21V133.62h93.37Z"/>
    <path class="cls-2" d="M428.07,215.79H328.78A8.19,8.19,0,0,0,320.6,224V411.81a8.19,8.19,0,0,0,8.18,8.19h99.29a8.19,8.19,0,0,0,8.19-8.19V224A8.19,8.19,0,0,0,428.07,215.79Zm-60.75,17.09h20.87a1.41,1.41,0,1,1,0,2.82H367.32a1.41,1.41,0,1,1,0-2.82Zm10.43,170a4.72,4.72,0,1,1,4.72-4.71A4.72,4.72,0,0,1,377.75,402.91Zm49.13-15.33H330V248.21h96.91Z"/>
    <rect class="cls-3" x="95.21" y="133.62" width="93.37" height="140.38"/>
    <rect class="cls-4" x="329.97" y="248.21" width="96.91" height="139.38"/>
    <path d="M247.26,338.54l-4.84-.16,4.59-7.66c8.4-12,13.67-22.94,22.9-37.69a414.74,414.74,0,0,0,26.88-50.34,154.36,154.36,0,0,0,8.59-28.56,70,70,0,0,0,.22-27.2q-6.18-29.76-26.68-41.4Q258.7,134,232.5,139.18a113.39,113.39,0,0,0-46.93,22.11l7.89,25.29A90.87,90.87,0,0,1,211,173.48q5.28-3,10.92-5.67A90.2,90.2,0,0,1,234,164.5q15.87-2.85,27.6,3.83,11.87,7.41,15.11,22.33a63.23,63.23,0,0,1-.45,26,139.53,139.53,0,0,1-8.92,26.8,368.48,368.48,0,0,1-27.09,47.64c-7.89,12.23-22.34,33.46-22.34,33.46v39.08H339.53V338.54Z"/>
    <path class="cls-1" d="M309.08,375.16H206.41V321.05l2-2.93c.14-.21,14.46-21.25,22.18-33.22l.17-.26a357.9,357.9,0,0,0,26.15-46A128.66,128.66,0,0,0,265,214.22a51.79,51.79,0,0,0,.42-21.22c-1.49-6.8-4.59-11.51-9.74-14.79a25.3,25.3,0,0,0-12.61-3.07,40.38,40.38,0,0,0-7,.65,78.85,78.85,0,0,0-9.88,2.68c-3.22,1.53-6.4,3.19-9.46,4.94a80.48,80.48,0,0,0-15.24,11.34L188.11,208l-15.88-50.9,6.26-4.89a125.22,125.22,0,0,1,51.64-24.31l.13,0a92.93,92.93,0,0,1,17.92-1.83,72.5,72.5,0,0,1,36.44,9.48c16.58,9.42,27.44,25.93,32.23,49l0,.1a81.66,81.66,0,0,1-.21,31.64A166.88,166.88,0,0,1,307.44,247l-.1.23-.1.22a427.32,427.32,0,0,1-27.61,51.7c-3.69,5.9-6.73,11.17-9.67,16.27-2.28,3.94-4.49,7.77-6.84,11.62h46V297.49l77,52.77-77,52.76Z"/>
    <path class="cls-2" d="M365.77,350.26l-45.2-31v19.25H247.26l-4.84-.16,4.59-7.66c8.4-12,13.67-22.94,22.9-37.69a414.74,414.74,0,0,0,26.88-50.34,154.36,154.36,0,0,0,8.59-28.56,70,70,0,0,0,.22-27.2q-6.18-29.76-26.68-41.4Q258.7,134,232.5,139.18a113.39,113.39,0,0,0-46.93,22.11l7.89,25.29A90.87,90.87,0,0,1,211,173.48q5.28-3,10.92-5.67A90.2,90.2,0,0,1,234,164.5q15.87-2.85,27.6,3.83,11.87,7.41,15.11,22.33a63.23,63.23,0,0,1-.45,26,139.53,139.53,0,0,1-8.92,26.8,368.48,368.48,0,0,1-27.09,47.64c-7.89,12.23-22.34,33.46-22.34,33.46v39.08H320.57v17.55Z"/>
  </g>
</svg>
