<svg xmlns="http://www.w3.org/2000/svg" width="520" height="520" viewBox="0 0 520 520">
  <defs>
    <style>
      .cls-1 {
        fill: #2ebced;
      }

      .cls-2 {
        fill: #fff;
      }

      .cls-3 {
        fill: #e5cf33;
      }

      .cls-4 {
        fill: #4dd6b2;
      }
    </style>
  </defs>
  <title>p_icon_1</title>
  <g id="Layer_2" data-name="Layer 2">
    <rect class="cls-1" width="520" height="520"/>
  </g>
  <g id="Layer_1" data-name="Layer 1">
    <path class="cls-2" d="M172.87,83.69H73.23A17.23,17.23,0,0,0,56,100.93V303.24a17.23,17.23,0,0,0,17.23,17.24h99.64a17.22,17.22,0,0,0,17.22-17.24V100.93A17.23,17.23,0,0,0,172.87,83.69ZM161.5,94.48a4.41,4.41,0,1,1-4.41,4.41A4.41,4.41,0,0,1,161.5,94.48ZM99.93,96.16h46.2v5H99.93ZM123,309.89a12.14,12.14,0,1,1,12.14-12.14A12.14,12.14,0,0,1,123,309.89Zm54.12-34.34H68.91V112.79H177.16Z"/>
    <path class="cls-2" d="M454.85,208.06H339.72a9.49,9.49,0,0,0-9.49,9.5V435.34a9.49,9.49,0,0,0,9.49,9.49H454.85a9.49,9.49,0,0,0,9.49-9.49V217.56A9.49,9.49,0,0,0,454.85,208.06ZM384.4,227.87h24.2a1.64,1.64,0,1,1,0,3.28H384.4a1.64,1.64,0,1,1,0-3.28ZM396.5,425a5.47,5.47,0,1,1,5.47-5.47A5.47,5.47,0,0,1,396.5,425Zm57-17.77H341.1V245.65H453.47Z"/>
    <rect class="cls-3" x="68.91" y="112.79" width="108.25" height="162.76"/>
    <rect class="cls-4" x="341.1" y="245.65" width="112.36" height="161.6"/>
    <path d="M245.2,350.38l-5.61-.18,5.33-8.88c9.73-14,15.84-26.61,26.54-43.71a482.19,482.19,0,0,0,31.17-58.36,179.61,179.61,0,0,0,10-33.12,81.19,81.19,0,0,0,.26-31.54q-7.17-34.49-30.94-48-23.45-13.39-53.83-7.37a131.55,131.55,0,0,0-54.41,25.65l9.15,29.31A106.26,106.26,0,0,1,203.14,159q6.13-3.51,12.67-6.58a105.15,105.15,0,0,1,14-3.84q18.41-3.28,32,4.45,13.77,8.58,17.52,25.89a72.92,72.92,0,0,1-.52,30.18,161.72,161.72,0,0,1-10.34,31.06,426.26,426.26,0,0,1-31.41,55.24c-9.14,14.18-25.9,38.8-25.9,38.8v45.31h141V350.38Z"/>
    <path class="cls-1" d="M316.87,392.84h-119V330.1l2.31-3.39c.17-.24,16.77-24.64,25.72-38.52l.2-.31a413.16,413.16,0,0,0,30.32-53.31,150.13,150.13,0,0,0,9.42-28.33,60.18,60.18,0,0,0,.48-24.6c-1.73-7.89-5.33-13.35-11.29-17.16a29.31,29.31,0,0,0-14.62-3.55,46.8,46.8,0,0,0-8.09.76,91.52,91.52,0,0,0-11.45,3.1c-3.74,1.78-7.42,3.7-11,5.73a92.7,92.7,0,0,0-17.68,13.14l-15.57,15.4-18.41-59,7.26-5.67a145.15,145.15,0,0,1,59.87-28.19l.15,0A107.22,107.22,0,0,1,246.27,104a84.07,84.07,0,0,1,42.24,11c19.23,10.92,31.82,30.06,37.38,56.86l0,.11a94.62,94.62,0,0,1-.24,36.68A192.54,192.54,0,0,1,315,244.26l-.1.27-.12.25a498.71,498.71,0,0,1-32,60c-4.28,6.84-7.81,12.95-11.21,18.86-2.64,4.57-5.2,9-7.93,13.47h53.28V302.79L406.19,364l-89.32,61.18Z"/>
    <path class="cls-2" d="M382.61,364l-52.41-35.9v22.31h-85l-5.61-.18,5.33-8.88c9.73-14,15.84-26.61,26.54-43.71a482.19,482.19,0,0,0,31.17-58.36,179.61,179.61,0,0,0,10-33.12,81.19,81.19,0,0,0,.26-31.54q-7.17-34.49-30.94-48-23.45-13.39-53.83-7.37a131.55,131.55,0,0,0-54.41,25.65l9.15,29.31A106.26,106.26,0,0,1,203.14,159q6.13-3.51,12.67-6.58a105.15,105.15,0,0,1,14-3.84q18.41-3.28,32,4.45,13.77,8.58,17.52,25.89a72.92,72.92,0,0,1-.52,30.18,161.72,161.72,0,0,1-10.34,31.06,426.26,426.26,0,0,1-31.41,55.24c-9.14,14.18-25.9,38.8-25.9,38.8v45.31h119v20.35Z"/>
  </g>
</svg>
